<svg width="30" height="28" viewBox="0 0 30 28" fill="none" xmlns="http://www.w3.org/2000/svg">
<path d="M28.5 24.5H15.2143C14.3863 24.5 13.7143 25.172 13.7143 26C13.7143 26.828 14.3863 27.5001 15.2143 27.5001H28.5C29.328 27.5001 30 26.828 30 26C30 25.172 29.328 24.5 28.5 24.5ZM1.5 3.5H28.5C29.328 3.5 30 2.82804 30 2C30 1.17196 29.328 0.5 28.5 0.5H1.5C0.67201 0.500049 0 1.17201 0 2.00005C0 2.82804 0.67201 3.5 1.5 3.5ZM28.5 12.5H8.14286C7.31487 12.5 6.64286 13.172 6.64286 14.0001C6.64286 14.8281 7.31487 15.5001 8.14286 15.5001H28.5C29.328 15.5001 30 14.828 30 14.0001C30 13.1721 29.328 12.5 28.5 12.5Z" fill="white"/>
</svg>
